<svg width="34" height="34" viewBox="0 0 34 34" fill="none" xmlns="http://www.w3.org/2000/svg">
<path d="M17 29.75C24.0416 29.75 29.75 24.0416 29.75 17C29.75 9.95837 24.0416 4.25 17 4.25C9.95837 4.25 4.25 9.95837 4.25 17C4.25 24.0416 9.95837 29.75 17 29.75Z" stroke="white" stroke-width="2.3" stroke-linecap="round" stroke-linejoin="round"/>
<path d="M16.0183 13.7969L21.25 12.75L20.2031 17.9817C20.0935 18.5301 19.8241 19.0338 19.4288 19.4293C19.0335 19.8248 18.53 20.0946 17.9817 20.2045L12.75 21.25L13.7969 16.0183C13.9068 15.4702 14.1763 14.9668 14.5715 14.5715C14.9668 14.1763 15.4702 13.9068 16.0183 13.7969Z" stroke="white" stroke-width="2.3" stroke-linecap="round" stroke-linejoin="round"/>
</svg>
