<svg width="20" height="20" viewBox="0 0 20 20" fill="none" xmlns="http://www.w3.org/2000/svg">
<path d="M10.0001 1.66667C6.77508 1.66667 4.16675 4.275 4.16675 7.5C4.16675 11.875 10.0001 18.3333 10.0001 18.3333C10.0001 18.3333 15.8334 11.875 15.8334 7.5C15.8334 4.275 13.2251 1.66667 10.0001 1.66667ZM10.0001 9.58333C9.44755 9.58333 8.91764 9.36384 8.52694 8.97314C8.13624 8.58244 7.91675 8.05253 7.91675 7.5C7.91675 6.94747 8.13624 6.41756 8.52694 6.02686C8.91764 5.63616 9.44755 5.41667 10.0001 5.41667C10.5526 5.41667 11.0825 5.63616 11.4732 6.02686C11.8639 6.41756 12.0834 6.94747 12.0834 7.5C12.0834 8.05253 11.8639 8.58244 11.4732 8.97314C11.0825 9.36384 10.5526 9.58333 10.0001 9.58333Z" fill="white"/>
</svg>
