<svg width="35" height="35" viewBox="0 0 15 15" fill="none" xmlns="http://www.w3.org/2000/svg">
<g clip-path="url(#clip0_792_144)">
<path d="M6 6.49597C6 6.09815 6.15804 5.71662 6.43934 5.43531C6.72064 5.15401 7.10218 4.99597 7.5 4.99597C7.89782 4.99597 8.27936 5.15401 8.56066 5.43531C8.84196 5.71662 9 6.09815 9 6.49597C9 6.8938 8.84196 7.27533 8.56066 7.55663C8.27936 7.83794 7.89782 7.99597 7.5 7.99597C7.10218 7.99597 6.72064 7.83794 6.43934 7.55663C6.15804 7.27533 6 6.8938 6 6.49597Z" fill="#FE0909"/>
<path fill-rule="evenodd" clip-rule="evenodd" d="M1 6.496C1.0008 4.7727 1.686 3.12028 2.90493 1.9021C4.12386 0.68392 5.7767 -0.00026527 7.5 7.7153e-08C11.089 7.7153e-08 14 2.909 14 6.496C14 9.17 12.662 11.289 11.228 12.721C10.5941 13.3577 9.88367 13.9132 9.113 14.375C8.791 14.565 8.49 14.715 8.228 14.817C7.981 14.915 7.722 14.991 7.5 14.991C7.278 14.991 7.019 14.915 6.772 14.817C6.46612 14.6925 6.17026 14.5448 5.887 14.375C5.11634 13.9132 4.40592 13.3576 3.772 12.721C2.338 11.289 1 9.17 1 6.496ZM7.5 3.997C6.83696 3.997 6.20107 4.26039 5.73223 4.72923C5.26339 5.19807 5 5.83396 5 6.497C5 7.16004 5.26339 7.79593 5.73223 8.26477C6.20107 8.73361 6.83696 8.997 7.5 8.997C8.16304 8.997 8.79893 8.73361 9.26777 8.26477C9.73661 7.79593 10 7.16004 10 6.497C10 5.83396 9.73661 5.19807 9.26777 4.72923C8.79893 4.26039 8.16304 3.997 7.5 3.997Z" fill="#FE0909"/>
</g>
<defs>
<clipPath id="clip0_792_144">
<rect width="15" height="15" fill="white"/>
</clipPath>
</defs>
</svg>
