<svg width="29" height="29" viewBox="0 0 29 29" fill="none" xmlns="http://www.w3.org/2000/svg">
<path d="M23.6229 10.8677L17.8044 10.3628L15.5322 5.01304C15.1235 4.03927 13.7289 4.03927 13.3202 5.01304L11.0481 10.3748L5.24151 10.8677C4.18359 10.9518 3.7508 12.2742 4.55627 12.9715L8.96829 16.7945L7.64589 22.4688C7.40545 23.5027 8.52348 24.3201 9.43714 23.7671L14.4262 20.7617L19.4153 23.7792C20.3289 24.3322 21.447 23.5147 21.2065 22.4808L19.8841 16.7945L24.2962 12.9715C25.1016 12.2742 24.6809 10.9518 23.6229 10.8677ZM14.4262 18.5136L9.90599 21.2426L11.1082 16.0972L7.11692 12.6349L12.3825 12.1781L14.4262 7.33326L16.482 12.1901L21.7475 12.6469L17.7563 16.1092L18.9585 21.2546L14.4262 18.5136Z" fill="#FF7020"/>
</svg>
